<?xml version="1.0" standalone="no"?>
<!DOCTYPE svg PUBLIC "-//W3C//DTD SVG 20010904//EN"
 "http://www.w3.org/TR/2001/REC-SVG-20010904/DTD/svg10.dtd">
<svg version="1.0" xmlns="http://www.w3.org/2000/svg" viewBox="0 70 900.000000 460.000000"
 preserveAspectRatio="xMidYMid meet">
<metadata>
Created by potrace 1.10, written by Peter Selinger 2001-2011
</metadata>
<g transform="translate(0.000000,600.000000) scale(0.100000,-0.100000)"
fill="currentColor" stroke="none">
<path d="M1196 5141 c-3 -4 -19 -11 -35 -14 -50 -10 -53 -35 -52 -471 0 -216
4 -402 7 -412 4 -11 16 -29 27 -41 l20 -23 426 0 425 0 28 27 28 27 0 421 c0
410 -1 423 -20 445 -40 47 -69 50 -472 50 -207 0 -379 -4 -382 -9z m805 -61
c18 -10 19 -26 19 -418 0 -304 -3 -411 -12 -420 -9 -9 -117 -12 -424 -12 -366
0 -413 2 -418 16 -3 9 -6 197 -6 418 0 299 3 405 12 414 16 16 799 17 829 2z"/>
<path d="M1397 4839 l-39 -49 -30 25 c-24 20 -33 23 -44 14 -8 -6 -14 -15 -14
-20 0 -12 72 -78 85 -79 6 0 38 30 72 67 47 51 59 70 51 80 -19 24 -43 13 -81
-38z"/>
<path d="M1552 4877 c-6 -7 -7 -18 -2 -27 7 -11 43 -13 172 -13 l163 1 0 23 0
24 -161 3 c-123 2 -164 -1 -172 -11z"/>
<path d="M1544 4755 c-12 -31 7 -35 169 -35 170 0 201 6 178 34 -19 23 -339
24 -347 1z"/>
<path d="M1409 4559 c-21 -22 -39 -45 -39 -50 0 -16 -20 -10 -48 16 -33 31
-38 31 -46 3 -5 -18 3 -31 36 -61 l43 -39 62 67 c61 65 79 105 47 105 -8 0
-33 -18 -55 -41z"/>
<path d="M1550 4576 c-5 -5 -5 -17 1 -28 9 -16 24 -18 169 -18 147 0 160 1
170 19 7 14 7 22 -2 27 -17 11 -327 11 -338 0z"/>
<path d="M1551 4461 c-8 -5 -11 -16 -8 -25 6 -14 29 -16 170 -16 127 0 167 3
176 14 24 28 -12 36 -170 35 -85 0 -160 -4 -168 -8z"/>
<path d="M5620 4780 c-8 -5 -35 -10 -60 -10 -25 0 -58 -7 -74 -15 -15 -8 -34
-15 -42 -15 -8 0 -42 -15 -76 -32 -66 -35 -198 -157 -198 -184 0 -8 -7 -22
-16 -31 -20 -21 -15 -77 8 -81 12 -2 19 6 24 25 11 41 63 123 102 159 33 30
121 78 192 103 19 8 87 19 150 27 200 23 360 -9 443 -89 32 -31 57 -73 57 -97
0 -11 8 -28 19 -37 86 -81 101 -98 101 -112 0 -10 7 -26 15 -37 17 -22 22
-199 6 -209 -6 -3 -13 -27 -16 -53 -4 -26 -14 -62 -22 -81 l-15 -34 -19 24
c-10 13 -19 27 -19 31 0 3 -16 16 -35 28 -25 16 -43 20 -65 15 -16 -4 -30 -11
-30 -16 0 -5 -6 -9 -14 -9 -7 0 -19 -7 -26 -15 -20 -24 -44 -17 -65 18 -10 17
-21 34 -24 37 -3 3 -14 23 -24 45 -11 22 -26 55 -35 74 -13 26 -17 63 -17 144
0 119 -6 132 -48 104 -12 -8 -37 -18 -55 -21 -17 -4 -32 -12 -32 -17 0 -5 -17
-9 -37 -9 -20 0 -65 -7 -100 -16 -57 -14 -69 -14 -126 0 -35 9 -71 16 -81 16
-10 0 -24 7 -32 15 -24 24 -49 18 -88 -23 -62 -63 -74 -95 -97 -257 -14 -100
-8 -510 9 -527 6 -6 12 -27 12 -44 0 -18 6 -39 13 -46 8 -7 17 -26 21 -41 3
-15 11 -27 16 -27 6 0 10 -6 10 -14 0 -17 80 -90 124 -112 17 -9 51 -19 74
-22 36 -6 46 -12 57 -38 19 -46 1 -64 -75 -71 -33 -3 -63 -10 -66 -14 -3 -5
-20 -9 -37 -9 -18 0 -44 -6 -58 -14 -14 -7 -42 -16 -62 -20 -21 -4 -37 -11
-37 -16 0 -6 -9 -10 -19 -10 -11 0 -26 -7 -35 -15 -8 -8 -17 -15 -21 -15 -12
0 -71 -46 -115 -90 -49 -49 -124 -151 -147 -200 -3 -8 -9 -17 -13 -20 -11 -9
-80 -151 -80 -166 0 -8 -4 -14 -10 -14 -5 0 -10 -6 -10 -12 -1 -7 -9 -31 -20
-53 -11 -22 -19 -46 -20 -53 0 -7 -7 -20 -15 -28 -8 -9 -15 -26 -15 -39 0 -13
-4 -27 -10 -30 -5 -3 -10 -16 -10 -28 0 -12 -4 -28 -9 -36 -7 -11 -13 -7 -25
17 -9 17 -16 38 -16 46 0 28 -34 96 -51 101 -30 10 -36 45 -23 135 18 117 18
211 -1 236 -8 10 -15 27 -15 36 0 10 -22 40 -50 67 -28 28 -50 59 -50 70 0 12
-4 21 -10 21 -5 0 -10 9 -10 20 0 18 -19 63 -61 140 -10 19 -24 47 -30 63 -6
15 -15 27 -20 27 -5 0 -9 6 -9 13 0 8 -8 23 -17 35 -10 11 -29 35 -43 53 -38
49 -78 70 -104 56 -11 -7 -24 -16 -28 -22 -16 -21 -7 -78 21 -129 15 -30 31
-65 35 -80 3 -14 10 -26 15 -26 5 0 12 -13 16 -30 4 -16 11 -32 16 -35 21 -13
7 -25 -29 -25 -39 0 -82 -28 -82 -54 0 -7 -20 -27 -45 -45 -25 -18 -45 -40
-45 -50 0 -10 -13 -35 -30 -56 -44 -55 -44 -99 0 -161 16 -22 32 -54 35 -70
15 -69 57 -132 135 -204 45 -41 80 -82 80 -92 0 -10 -10 -32 -21 -48 -21 -27
-21 -33 -10 -92 6 -35 16 -87 21 -116 4 -29 13 -58 18 -65 5 -7 12 -34 15 -62
3 -27 10 -51 16 -53 6 -2 11 -18 11 -36 0 -18 7 -41 15 -52 8 -10 15 -28 15
-39 0 -11 7 -33 15 -49 8 -15 15 -34 15 -42 0 -14 54 -122 85 -169 57 -86 129
-125 231 -125 59 0 82 5 123 26 42 22 114 89 159 149 33 43 120 209 136 259
13 40 25 -2 29 -104 2 -58 10 -156 17 -218 l13 -113 -26 -26 -26 -26 -483 1
c-448 0 -483 2 -495 18 -7 10 -13 32 -13 48 0 17 -7 44 -15 60 -8 15 -15 40
-15 55 0 14 -6 38 -13 52 -8 14 -17 44 -21 68 -3 23 -10 50 -15 59 -9 18 -26
81 -42 152 -5 24 -14 49 -19 54 -6 6 -10 24 -10 40 0 17 -7 44 -15 60 -8 15
-15 37 -15 47 0 28 -34 86 -63 109 -24 19 -41 20 -269 20 -133 0 -306 5 -383
10 -77 5 -272 11 -433 12 -251 3 -294 1 -302 -12 -15 -23 -12 -102 5 -134 8
-15 15 -38 15 -50 0 -11 7 -34 15 -50 8 -15 15 -38 15 -50 0 -11 7 -34 15 -50
8 -15 15 -40 15 -55 0 -15 7 -36 15 -47 8 -10 15 -32 15 -49 0 -16 7 -43 15
-59 8 -15 15 -38 15 -50 0 -11 7 -34 15 -50 8 -15 15 -36 15 -46 0 -11 5 -31
12 -47 23 -57 35 -113 24 -113 -6 0 -324 0 -707 0 -383 0 -703 -2 -713 -6 -21
-8 -21 -30 0 -38 9 -3 336 -6 728 -6 570 1 712 -2 717 -12 3 -7 11 -23 17 -35
7 -13 12 -35 12 -51 0 -15 7 -37 15 -48 8 -10 15 -31 15 -46 0 -31 46 -83 85
-98 15 -6 57 -10 94 -10 37 0 81 -4 97 -10 16 -5 92 -15 169 -20 77 -6 167
-14 200 -19 33 -5 100 -10 148 -10 49 -1 97 -6 109 -12 11 -6 79 -15 151 -19
73 -5 164 -14 202 -20 80 -14 270 -9 300 7 19 11 82 23 206 42 30 5 71 13 90
19 38 12 127 28 238 42 41 6 79 14 85 19 6 5 32 11 57 13 50 6 89 35 89 66 0
10 -14 29 -31 41 -25 19 -50 25 -133 31 -55 5 -166 13 -246 19 -80 6 -162 16
-183 22 -21 6 -103 10 -181 10 l-142 0 -19 35 c-10 19 -16 36 -13 39 3 3 209
6 459 6 l454 0 -3 -37 c-3 -33 1 -41 39 -76 23 -21 54 -41 68 -44 14 -4 40
-15 57 -25 16 -10 39 -16 51 -13 11 3 24 1 27 -5 10 -15 102 -14 134 2 15 8
42 21 60 30 48 24 123 30 237 18 69 -7 125 -7 180 1 96 12 97 12 160 -3 64
-15 185 -16 469 -2 137 7 232 15 239 22 6 6 29 11 52 11 23 0 50 7 61 15 10 8
27 15 37 15 9 0 38 20 64 45 l46 45 307 0 c248 0 310 3 319 14 27 33 -9 37
-304 35 -157 -1 -288 1 -291 4 -3 3 -1 14 5 25 6 12 11 31 11 44 0 13 5 29 12
36 17 17 23 313 9 442 -7 58 -16 171 -21 252 -5 81 -13 156 -19 167 -6 11 -11
50 -11 88 0 37 -5 86 -11 108 -6 22 -15 70 -19 107 -5 37 -13 76 -19 87 -6 11
-11 30 -11 43 0 13 -6 32 -14 43 -7 11 -16 32 -20 48 -3 15 -11 27 -16 27 -6
0 -10 6 -10 13 0 45 -139 171 -245 221 -22 10 -52 25 -67 33 -14 7 -38 13 -52
13 -14 0 -26 4 -26 10 0 5 -17 12 -37 15 -21 3 -50 13 -65 21 -14 8 -35 14
-46 14 -11 0 -33 7 -48 15 -16 8 -36 15 -45 15 -29 0 -124 57 -136 81 -28 59
-50 226 -35 267 6 15 13 39 16 55 4 17 13 27 25 27 50 0 151 121 151 182 0 11
16 52 35 92 19 40 35 82 35 93 0 12 7 34 15 49 21 40 21 222 0 250 -8 10 -15
27 -15 37 0 10 -27 45 -60 79 -33 33 -60 68 -60 77 0 46 -134 181 -180 181 -9
0 -21 5 -28 12 -6 6 -35 16 -64 21 -80 14 -271 19 -288 7z m174 -414 c-8 -28
-9 -23 0 -91 5 -33 14 -71 21 -85 6 -14 20 -43 31 -65 19 -42 61 -102 103
-147 l24 -28 31 24 c64 48 87 55 121 39 56 -27 82 -104 50 -147 -8 -11 -15
-26 -15 -34 0 -8 -15 -29 -33 -47 -26 -26 -46 -35 -85 -41 -51 -6 -63 -19 -41
-41 8 -8 8 -17 -1 -32 -17 -33 -23 -150 -10 -201 6 -25 15 -63 19 -85 8 -43
34 -90 59 -104 28 -16 3 -61 -79 -142 -43 -44 -86 -79 -93 -79 -8 0 -21 -6
-28 -13 -15 -15 -92 -36 -157 -44 -62 -7 -148 23 -189 66 -34 35 -49 72 -37
91 10 16 25 1 25 -26 0 -15 6 -24 16 -24 14 0 16 13 13 88 -2 48 0 93 4 100 5
7 29 12 55 12 34 0 66 9 111 33 74 37 91 57 72 81 -12 15 -17 14 -45 -7 -17
-13 -42 -28 -56 -32 -14 -4 -28 -12 -31 -18 -4 -5 -55 -10 -115 -11 -95 -1
-115 2 -156 22 -83 41 -137 119 -166 237 -18 70 -29 540 -14 559 5 6 13 37 16
69 4 31 11 57 16 57 5 0 12 10 15 23 8 25 44 67 57 67 5 0 16 -7 24 -15 9 -8
28 -15 43 -15 15 0 32 -5 38 -11 16 -16 123 -22 173 -9 25 6 65 15 90 20 25 4
58 15 74 23 36 20 59 12 50 -17z m-1667 -978 c11 -13 30 -41 43 -63 13 -22 27
-42 30 -45 15 -13 134 -270 128 -275 -2 -1 -24 -5 -50 -8 -45 -6 -47 -5 -62
24 -9 17 -18 47 -21 68 -8 45 -19 72 -90 223 -20 43 -33 82 -30 88 10 16 30
12 52 -12z m2037 -153 c11 -8 29 -15 40 -15 12 0 30 -7 40 -15 11 -8 30 -15
42 -15 12 0 35 -7 50 -15 16 -8 36 -15 45 -15 9 0 30 -7 45 -15 16 -8 38 -15
49 -15 11 0 29 -7 39 -15 11 -8 30 -15 43 -15 13 0 23 -4 23 -9 0 -5 10 -13
23 -17 45 -14 168 -124 188 -169 5 -11 13 -27 19 -35 18 -28 38 -85 45 -125 4
-22 10 -44 15 -50 4 -5 10 -42 13 -82 3 -40 11 -81 16 -92 6 -11 11 -50 12
-88 0 -37 5 -90 10 -118 6 -27 14 -118 19 -202 5 -84 14 -186 19 -228 22 -157
3 -406 -39 -501 -31 -69 -110 -115 -230 -133 -90 -14 -677 -37 -687 -27 -4 4
-2 16 5 26 15 24 16 86 2 95 -5 3 -10 18 -10 32 0 32 -33 88 -76 129 -38 35
-35 44 12 44 18 0 36 5 39 10 3 6 29 10 57 10 27 0 64 6 81 14 18 8 58 17 90
19 32 3 64 10 70 15 7 5 38 12 70 15 32 3 64 10 70 15 7 5 37 13 67 16 30 4
75 11 100 16 25 5 57 12 73 15 34 7 35 33 2 41 -32 8 -104 -3 -122 -18 -8 -6
-16 -8 -20 -4 -9 9 -22 92 -33 218 -5 60 -14 117 -20 127 -5 11 -10 48 -10 83
-1 35 -5 83 -11 108 -6 25 -14 101 -20 169 -11 137 -19 164 -52 159 -29 -4
-32 -29 -13 -88 9 -27 16 -77 17 -112 0 -35 5 -85 10 -113 5 -27 14 -95 19
-150 6 -55 14 -111 19 -125 5 -14 12 -65 15 -115 3 -55 11 -103 21 -123 20
-40 14 -48 -40 -55 -129 -18 -179 -27 -189 -35 -6 -5 -37 -12 -69 -15 -32 -3
-64 -10 -70 -15 -7 -5 -40 -12 -75 -15 -34 -3 -68 -10 -75 -16 -7 -5 -33 -13
-57 -17 -24 -4 -55 -13 -68 -20 -26 -13 -118 -9 -138 7 -6 5 -33 12 -60 15
-27 3 -64 13 -82 21 -43 19 -223 15 -230 -4 -2 -7 -11 -13 -21 -13 -19 0 -103
-53 -145 -93 -16 -15 -32 -24 -36 -22 -5 3 -6 31 -3 63 2 31 0 84 -7 117 -6
33 -15 112 -20 175 -6 63 -15 133 -21 155 -8 26 -12 157 -13 375 -2 325 -3
335 -21 335 -18 0 -21 -11 -29 -90 -13 -119 -12 -324 2 -510 l12 -150 -49 -95
c-60 -119 -84 -164 -92 -170 -3 -3 -16 -23 -29 -45 -34 -56 -107 -123 -159
-146 -92 -41 -173 -19 -251 67 -39 43 -95 151 -105 202 -4 17 -11 32 -16 32
-5 0 -9 10 -9 23 0 12 -7 35 -15 51 -8 15 -15 38 -15 50 0 11 -7 34 -15 50 -8
15 -15 39 -15 52 0 13 -6 41 -14 61 -8 21 -17 59 -21 85 -3 26 -10 50 -16 53
-12 8 -12 52 1 60 5 3 33 9 62 12 29 3 64 11 78 18 70 33 115 60 142 83 40 36
52 34 56 -8 2 -19 7 -39 12 -45 4 -5 11 -27 15 -48 4 -20 11 -40 16 -43 5 -3
9 -14 9 -26 0 -11 6 -32 14 -46 7 -15 24 -49 37 -75 38 -77 52 -102 59 -107 4
-3 11 -15 15 -28 10 -34 51 -27 47 8 -2 14 -9 31 -15 39 -22 27 -87 154 -87
170 0 6 -4 11 -9 11 -5 0 -11 15 -14 33 -4 30 2 51 49 154 8 17 14 38 14 47 0
9 4 16 9 16 5 0 13 10 16 23 11 39 125 278 137 287 4 3 12 17 17 30 25 59 82
133 154 203 33 31 66 57 72 57 7 0 18 6 24 14 7 8 26 18 42 21 16 4 29 10 29
14 0 5 19 11 41 14 23 3 45 10 48 15 3 5 24 12 47 15 22 4 55 14 72 23 46 22
62 13 62 -36 0 -22 5 -40 10 -40 6 0 10 -6 10 -13 0 -23 66 -76 122 -98 42
-17 68 -20 126 -16 40 2 78 9 85 16 6 6 20 11 30 11 65 0 277 185 277 242 0
31 23 36 54 13z m-2011 -193 c33 -34 34 -50 5 -54 -34 -5 -37 -60 -6 -93 13
-14 29 -25 35 -25 20 0 43 -43 36 -68 -7 -29 -13 -28 -52 12 -95 98 -136 256
-67 256 12 0 34 -13 49 -28z m-104 -102 c12 -22 21 -45 21 -51 0 -5 5 -15 10
-22 45 -54 81 -110 78 -125 -6 -33 -43 -25 -79 17 -51 60 -69 84 -69 94 0 5
-7 15 -15 23 -18 19 -19 57 -3 84 19 30 34 24 57 -20z m336 -13 c18 -18 37
-45 40 -60 4 -15 11 -30 16 -33 13 -8 11 -141 -2 -166 -15 -28 -15 -168 0
-178 7 -3 13 -19 14 -35 2 -26 -5 -32 -81 -71 -46 -24 -96 -46 -111 -49 -36
-8 -61 15 -61 56 0 19 -9 38 -24 52 -140 129 -205 207 -171 207 8 0 17 -4 20
-10 3 -5 21 -10 38 -10 23 0 35 6 42 22 6 12 26 27 45 33 21 7 36 19 38 31 4
21 29 44 49 44 10 0 13 -20 13 -73 0 -76 9 -97 42 -97 27 0 32 23 14 59 -18
35 -21 92 -5 108 6 6 11 32 12 59 l2 48 -45 8 c-25 4 -46 12 -48 18 -2 5 -9
10 -16 10 -18 0 -49 37 -41 49 3 7 43 11 96 11 88 0 91 -1 124 -33z m-401
-111 c20 -29 47 -65 61 -80 25 -26 34 -66 16 -66 -61 0 -170 157 -134 193 13
14 23 6 57 -47z m-1024 -635 c107 -5 326 -10 485 -10 160 -1 295 -5 300 -9 19
-13 45 -61 45 -83 0 -11 6 -35 14 -52 8 -18 17 -50 20 -72 3 -22 10 -41 16
-43 5 -2 10 -17 10 -33 0 -16 7 -46 15 -66 8 -19 15 -45 15 -57 0 -11 7 -34
15 -50 8 -15 15 -40 15 -55 0 -14 6 -38 14 -52 7 -14 16 -47 20 -72 4 -26 11
-49 17 -52 5 -4 9 -18 9 -33 0 -15 6 -39 14 -53 7 -14 16 -43 20 -65 5 -21 11
-43 16 -49 4 -5 11 -31 14 -57 4 -26 11 -50 17 -53 5 -4 9 -18 9 -32 0 -14 6
-39 14 -56 26 -57 37 -110 24 -118 -14 -9 -103 -1 -139 12 -14 6 -86 14 -160
19 -74 5 -156 14 -184 19 -27 5 -86 10 -130 10 -44 1 -97 6 -118 12 -22 6
-100 14 -175 19 -76 5 -162 14 -192 19 -30 5 -88 10 -129 10 -85 1 -141 27
-141 64 0 12 -7 35 -15 51 -8 15 -15 38 -15 50 0 11 -7 34 -15 50 -8 16 -18
46 -21 68 -4 21 -11 41 -15 44 -5 3 -9 20 -9 38 0 18 -7 41 -15 52 -8 10 -15
33 -15 49 0 17 -7 43 -15 59 -8 15 -15 38 -15 50 0 11 -7 34 -15 50 -8 15 -15
40 -15 55 0 15 -7 36 -15 47 -8 10 -15 30 -15 42 0 13 -6 38 -14 55 -14 33
-31 95 -45 160 -5 21 -14 44 -20 50 -6 6 -11 29 -11 50 l0 40 168 -7 c92 -3
255 -10 362 -15z m2553 -626 c20 -8 49 -15 65 -15 16 0 47 -7 68 -16 30 -13
59 -15 124 -11 79 5 87 4 106 -16 42 -44 71 -104 82 -167 13 -72 9 -80 -44
-80 -16 0 -35 -5 -41 -11 -14 -14 -254 -14 -281 0 -11 6 -33 11 -47 11 -41 0
-151 -36 -230 -77 -32 -16 -66 -15 -67 1 0 6 17 19 38 30 22 12 41 24 44 27 5
6 87 45 130 62 45 17 55 24 55 38 0 22 -52 22 -88 1 -17 -11 -59 -35 -92 -52
-33 -18 -76 -45 -95 -60 -39 -30 -72 -41 -90 -30 -19 11 3 44 47 71 39 24 42
26 82 59 13 11 30 20 38 20 7 0 13 4 13 8 0 9 93 52 111 52 6 0 9 8 7 18 -5
25 -52 27 -85 4 -15 -11 -62 -41 -103 -68 -41 -26 -94 -67 -116 -90 -49 -50
-78 -59 -82 -26 -3 17 17 42 80 105 46 45 101 91 123 102 22 11 42 23 45 26 3
4 15 9 28 13 31 10 28 36 -3 36 -50 0 -175 -93 -260 -193 -32 -37 -61 -67 -66
-67 -5 0 -9 12 -9 28 0 47 170 203 280 255 65 31 174 37 233 12z m-1168 -355
c17 -4 86 -11 154 -14 68 -4 132 -11 142 -16 10 -6 66 -11 126 -11 129 -2 167
-8 171 -31 3 -13 -7 -18 -45 -23 -26 -3 -62 -10 -79 -15 -17 -6 -46 -10 -65
-10 -19 0 -52 -5 -74 -11 -66 -17 -176 -39 -245 -49 -36 -5 -74 -14 -85 -19
-11 -5 -46 -13 -77 -16 -32 -4 -60 -11 -63 -16 -11 -17 -45 -9 -61 16 -23 35
-12 55 30 55 19 0 45 4 58 10 13 5 66 14 118 20 52 5 111 12 130 15 19 3 54 8
78 11 26 3 42 10 42 19 0 28 -12 27 -285 -4 -49 -6 -108 -17 -130 -25 -53 -19
-71 -8 -79 48 -4 25 -11 48 -17 51 -5 4 -9 13 -9 22 0 13 15 15 118 9 64 -4
131 -11 147 -16z"/>
<path d="M5245 4190 c-32 -12 -50 -39 -37 -52 9 -9 18 -8 37 2 21 11 29 11 59
-5 63 -34 93 7 32 44 -35 22 -58 25 -91 11z"/>
<path d="M5570 4183 c-56 -38 -44 -58 32 -55 33 2 64 -3 82 -13 24 -12 31 -13
38 -3 15 24 3 43 -42 65 -54 27 -77 29 -110 6z"/>
<path d="M5241 3988 c-12 -31 4 -58 34 -58 26 0 43 35 31 65 -9 24 -55 19 -65
-7z"/>
<path d="M5367 4003 c-3 -5 -8 -24 -11 -43 -7 -34 -35 -100 -47 -110 -9 -8
-39 -72 -39 -84 0 -25 49 -63 88 -70 40 -6 85 4 96 22 11 19 -23 35 -62 29
-52 -9 -66 3 -58 47 4 20 11 36 16 36 5 0 12 10 16 23 3 12 12 29 19 37 19 23
28 89 14 106 -13 15 -25 18 -32 7z"/>
<path d="M5588 3993 c-38 -10 -28 -83 12 -83 49 0 68 40 34 74 -16 16 -17 17
-46 9z"/>
<path d="M5562 3613 c-9 -15 -24 -18 -104 -18 -79 0 -93 -2 -96 -17 -6 -33
135 -68 153 -38 3 6 15 10 25 10 28 0 90 43 87 60 -3 23 -53 25 -65 3z"/>
<path d="M2245 4724 c-7 -8 -11 -22 -8 -32 4 -17 18 -20 98 -25 51 -3 101 -10
111 -16 11 -6 30 -15 44 -21 28 -11 58 -29 77 -47 7 -6 23 -20 36 -30 32 -26
107 -117 107 -130 0 -7 7 -18 15 -27 18 -18 32 -76 18 -76 -5 0 -20 11 -33 25
-25 27 -60 34 -60 11 0 -14 105 -108 133 -119 14 -5 22 4 42 49 14 31 25 63
25 70 0 8 5 14 10 14 6 0 10 7 10 16 0 11 -8 14 -27 12 -22 -2 -29 -9 -33 -32
-6 -37 -24 -40 -28 -6 -6 46 -64 150 -112 199 -32 33 -108 91 -119 91 -6 0
-11 4 -11 10 0 5 -12 13 -27 16 -16 4 -37 13 -48 20 -11 8 -30 14 -43 14 -13
0 -31 4 -40 9 -31 16 -122 19 -137 5z"/>
<path d="M2736 4064 c-9 -8 -16 -28 -16 -44 0 -22 -7 -32 -32 -44 -35 -18 -58
-21 -58 -7 0 12 -40 26 -65 22 -22 -3 -95 -72 -95 -90 0 -6 -4 -11 -10 -11
-18 0 -11 -30 15 -64 24 -31 24 -33 8 -69 -14 -29 -23 -37 -44 -37 -46 0 -59
-23 -59 -103 0 -85 7 -98 49 -102 26 -2 35 -10 51 -41 25 -48 25 -44 -5 -76
-14 -15 -25 -31 -25 -36 0 -15 83 -102 111 -116 26 -13 30 -12 54 10 26 24 45
31 45 16 0 -4 13 -13 29 -19 23 -8 30 -18 33 -44 2 -24 11 -37 33 -50 66 -39
147 -15 166 49 8 29 20 43 46 54 33 15 35 15 60 -8 14 -13 32 -24 39 -24 7 0
35 22 63 49 53 52 65 87 36 111 -36 29 -7 110 40 110 10 0 28 11 41 26 20 21
24 36 24 90 0 72 -20 104 -64 104 -42 0 -73 84 -41 110 29 24 18 72 -29 119
-47 47 -89 57 -111 27 -13 -16 -55 -23 -55 -8 0 5 -12 14 -26 20 -14 7 -22 16
-19 22 3 5 -1 23 -10 40 -15 29 -17 30 -90 30 -54 0 -78 -4 -89 -16z m134 -56
c6 -34 34 -68 56 -68 8 0 22 -7 30 -15 22 -21 64 -19 89 5 l22 20 31 -30 c35
-33 41 -60 17 -80 -20 -16 -19 -64 1 -103 9 -18 20 -39 24 -47 4 -8 23 -16 44
-18 l36 -3 0 -55 c0 -48 -2 -54 -21 -54 -33 0 -55 -17 -78 -60 -25 -47 -27
-102 -6 -120 22 -18 18 -38 -11 -65 -33 -30 -44 -31 -74 -5 -28 24 -43 25 -64
5 -8 -8 -21 -15 -29 -15 -25 0 -66 -40 -69 -68 -2 -20 -9 -28 -27 -30 -35 -5
-71 6 -71 23 0 31 -24 64 -51 70 -15 4 -33 13 -40 21 -16 20 -42 18 -72 -6
-32 -25 -31 -26 -67 10 -35 34 -37 50 -10 75 23 21 25 38 8 68 -7 12 -17 38
-23 57 -9 31 -15 35 -48 38 -20 2 -37 6 -38 10 0 4 -1 27 -2 52 l-2 44 42 9
c39 7 43 11 49 45 4 20 13 43 21 50 19 19 16 45 -7 65 -27 23 -25 48 5 81 27
29 56 34 75 11 7 -8 25 -15 41 -15 15 0 34 7 43 15 8 8 21 15 28 15 23 0 38
22 38 56 0 36 12 43 70 41 30 -2 36 -6 40 -29z"/>
<path d="M2765 3820 c-3 -5 -15 -10 -25 -10 -10 0 -41 -26 -69 -57 l-51 -57 0
-74 c0 -98 28 -149 112 -200 67 -41 179 -22 235 41 67 75 84 175 41 246 -27
46 -88 101 -110 101 -9 0 -20 5 -23 10 -3 6 -28 10 -55 10 -27 0 -52 -4 -55
-10z m130 -61 c50 -21 85 -80 85 -145 0 -90 -73 -164 -162 -164 -45 0 -113 39
-123 70 -3 11 -11 20 -16 20 -5 0 -9 33 -9 73 0 67 2 74 33 108 47 53 121 68
192 38z"/>
<path d="M2780 2991 c-5 -11 -10 -40 -10 -65 0 -39 -11 -72 -42 -126 -5 -8
-11 -23 -14 -32 -4 -10 -10 -18 -14 -18 -5 0 -11 -8 -14 -18 -6 -18 -101 -122
-111 -122 -5 0 -64 -39 -75 -50 -7 -7 -88 -50 -94 -50 -14 0 -4 25 19 46 26
24 34 74 12 74 -7 0 -26 -20 -41 -44 -16 -25 -37 -53 -47 -62 -29 -26 -25 -63
9 -74 15 -6 35 -15 44 -20 34 -20 98 -38 104 -29 9 16 -16 49 -39 49 -12 0
-28 4 -35 9 -16 9 20 36 62 47 14 3 26 10 26 14 0 4 12 11 26 14 14 4 60 42
102 85 88 90 99 102 112 133 6 13 14 30 19 38 30 52 41 82 41 107 1 15 7 39
14 52 7 13 11 32 8 43 -6 24 -48 24 -62 -1z"/>
<path d="M1650 2920 c-8 -5 -25 -10 -37 -10 -24 0 -106 -39 -111 -52 -2 -4
-10 -8 -17 -8 -41 0 -185 -194 -185 -248 0 -10 -6 -24 -12 -30 -9 -9 -13 -48
-13 -122 0 -74 4 -113 13 -121 6 -7 12 -25 12 -40 0 -15 6 -34 13 -41 6 -7 21
-31 32 -52 26 -51 110 -135 161 -161 21 -11 41 -23 44 -27 6 -7 61 -22 143
-39 34 -7 63 -7 95 1 26 6 65 15 87 20 22 4 41 13 43 19 2 6 10 11 17 11 41 0
195 142 195 179 0 6 4 11 10 11 5 0 13 12 16 28 4 15 11 33 17 40 38 49 37
337 -1 350 -7 2 -12 12 -12 23 0 40 -133 199 -167 199 -7 0 -13 3 -13 8 0 10
-88 49 -130 57 -64 13 -185 16 -200 5z m180 -56 c30 -3 64 -13 75 -20 11 -8
25 -14 32 -14 12 0 24 -9 88 -67 33 -29 85 -100 85 -115 0 -7 8 -25 18 -38 25
-37 25 -288 -1 -314 -9 -10 -17 -24 -17 -32 0 -24 -30 -65 -90 -125 -98 -97
-207 -130 -354 -109 -47 7 -86 17 -86 21 0 4 -12 10 -26 13 -28 7 -30 9 -90
61 -45 38 -114 145 -114 176 0 10 -7 36 -16 58 -11 28 -14 58 -11 98 7 76 28
165 44 181 7 7 13 19 13 25 0 36 111 140 190 179 34 17 159 38 190 32 8 -1 40
-6 70 -10z"/>
<path d="M1714 2745 c-4 -8 -5 -62 -2 -118 3 -102 3 -104 -24 -133 -34 -36
-35 -62 -3 -93 21 -19 32 -22 62 -18 31 5 42 2 74 -26 20 -18 52 -44 71 -59
52 -43 101 -33 65 13 -11 14 -78 57 -132 84 -12 6 -22 25 -26 47 -3 20 -14 44
-23 54 -16 16 -18 30 -12 123 4 58 4 114 1 124 -9 21 -43 23 -51 2z m36 -280
c10 -12 10 -18 0 -29 -14 -18 -40 -10 -40 13 0 32 20 40 40 16z"/>
</g>
</svg>
