<svg xmlns="http://www.w3.org/2000/svg" width="100" height="100" viewBox="0 0 100 100"><rect width="100%" height="100%" fill="#DDDDDD"/><path fill="#999999" d="M21.305 55.725h11.8v-3.04h-8.07v-13.06h-3.73Zm19.44.18c3.93 0 6.78-2.64 6.78-6.37 0-3.72-2.85-6.37-6.78-6.37s-6.81 2.65-6.81 6.37c0 3.73 2.88 6.37 6.81 6.37m0-2.94c-1.79 0-3.17-1.29-3.17-3.43s1.38-3.42 3.17-3.42 3.15 1.28 3.15 3.42-1.36 3.43-3.15 3.43m18.54-9.61v1.58c-.95-1.19-2.37-1.77-4.1-1.77-3.42 0-6.18 2.37-6.18 5.98s2.76 5.98 6.18 5.98c1.61 0 2.97-.5 3.91-1.54v.53c0 2.23-1.1 3.38-3.63 3.38-1.59 0-3.31-.55-4.37-1.4l-1.43 2.57c1.45 1.13 3.73 1.71 6.07 1.71 4.47 0 6.95-2.12 6.95-6.72v-10.3Zm-3.38 8.83c-1.89 0-3.27-1.22-3.27-3.04 0-1.81 1.38-3.03 3.27-3.03 1.88 0 3.24 1.22 3.24 3.03 0 1.82-1.36 3.04-3.24 3.04m16 3.72c3.94 0 6.79-2.64 6.79-6.37 0-3.72-2.85-6.37-6.79-6.37-3.93 0-6.8 2.65-6.8 6.37 0 3.73 2.87 6.37 6.8 6.37m0-2.94c-1.79 0-3.17-1.29-3.17-3.43s1.38-3.42 3.17-3.42c1.8 0 3.16 1.28 3.16 3.42s-1.36 3.43-3.16 3.43"/></svg>