<?xml version="1.0" standalone="no"?>
<!DOCTYPE svg PUBLIC "-//W3C//DTD SVG 20010904//EN"
 "http://www.w3.org/TR/2001/REC-SVG-20010904/DTD/svg10.dtd">
<svg version="1.0" xmlns="http://www.w3.org/2000/svg"
 viewBox="0 20 300.000000 150.000000"
 preserveAspectRatio="xMidYMid meet">
<metadata>
Created by potrace 1.10, written by Peter Selinger 2001-2011
</metadata>
<g transform="translate(0.000000,200.000000) scale(0.100000,-0.100000)"
fill="currentColor" stroke="none">
<path d="M312 1638 c-8 -8 -12 -61 -12 -175 0 -145 2 -163 18 -171 21 -11 372
-10 390 1 17 11 17 328 0 345 -8 8 -67 12 -198 12 -131 0 -190 -4 -198 -12z
m388 -48 l0 -40 -188 0 c-104 0 -191 2 -193 5 -3 2 -3 20 -1 40 l4 35 189 0
189 0 0 -40z m0 -170 l0 -120 -189 0 -190 0 -3 120 -3 120 193 0 192 0 0 -120z"/>
<path d="M372 1423 l3 -68 135 0 135 0 0 65 0 65 -138 3 -138 3 3 -68z m234
47 c25 -10 30 -32 18 -78 -6 -22 -9 -23 -118 -20 l-111 3 -3 47 c-3 44 -2 47
25 50 66 7 166 6 189 -2z"/>
<path d="M1720 1630 c-71 -29 -136 -34 -213 -16 -95 22 -113 21 -191 -19 -39
-19 -80 -35 -93 -35 -12 0 -57 11 -100 25 -97 31 -170 32 -224 4 -54 -27 -44
-35 12 -9 59 26 105 25 195 -5 103 -34 140 -33 224 11 70 37 70 37 127 24 104
-24 168 -24 243 -1 39 12 70 26 70 31 0 6 -1 10 -2 9 -2 -1 -23 -9 -48 -19z"/>
<path d="M2173 1604 c-8 -4 -13 -26 -13 -60 l0 -54 -45 0 -46 0 3 -127 3 -128
115 0 115 0 3 67 3 67 47 3 47 3 0 115 0 115 -110 2 c-60 1 -116 -1 -122 -3z
m227 -119 l0 -106 -112 3 -113 3 -3 103 -3 102 116 0 115 0 0 -105z m-170
-113 l65 -3 -3 -65 -4 -65 -101 3 -102 3 -3 112 -3 112 38 3 38 3 5 -50 5 -50
65 -3z"/>
<path d="M2305 1500 c-15 -22 -30 -40 -32 -40 -3 0 -13 10 -23 23 -10 12 -21
20 -24 17 -3 -3 6 -19 20 -35 l24 -30 40 45 c22 25 40 48 40 53 0 18 -20 4
-45 -33z"/>
<path d="M2198 1323 c-23 -22 -29 -24 -42 -13 -19 15 -22 0 -4 -18 18 -18 31
-14 57 19 30 39 23 46 -11 12z"/>
<path d="M1312 1505 c-86 -41 -131 -44 -215 -15 -60 21 -152 27 -162 10 -4 -7
7 -8 34 -4 28 4 61 0 113 -16 102 -32 153 -30 229 10 66 34 62 34 200 14 48
-7 119 10 119 27 0 6 -9 5 -22 -2 -21 -11 -141 -8 -198 6 -17 4 -48 -5 -98
-30z"/>
<path d="M1741 1523 c-28 -6 -111 -86 -111 -108 0 -9 5 -13 10 -10 6 3 10 12
10 20 0 22 67 73 112 86 75 20 169 -6 183 -51 3 -9 14 -25 25 -35 16 -14 20
-31 20 -81 0 -61 -12 -90 -24 -59 -3 9 -18 15 -39 15 -41 0 -58 17 -68 68 l-7
37 -1 -36 c-1 -50 27 -83 70 -84 31 0 34 -3 37 -33 4 -37 -11 -62 -37 -62 -16
0 -18 -13 -13 -87 1 -12 13 -34 26 -50 l24 -28 -20 -25 c-32 -40 -70 -60 -114
-60 -44 0 -74 22 -74 56 0 16 2 16 10 4 14 -23 21 -7 11 28 -9 29 -7 32 24 42
18 6 39 18 45 26 16 18 5 18 -25 -2 -29 -19 -78 -21 -109 -5 -33 18 -56 73
-56 135 0 51 1 54 23 50 22 -5 22 -4 -1 8 -24 12 -26 29 -7 98 6 24 5 24 -10
-3 -17 -30 -24 -182 -10 -228 10 -34 44 -68 83 -84 45 -19 41 -41 -9 -49 -52
-8 -107 -36 -141 -73 -29 -30 -74 -123 -102 -210 -10 -29 -21 -55 -26 -58 -4
-3 -16 18 -26 45 -10 28 -24 50 -31 50 -7 0 -13 9 -13 20 0 13 7 20 19 20 41
0 71 41 83 112 16 91 9 98 -93 98 -63 0 -80 -3 -91 -18 -7 -10 -24 -19 -37
-19 -42 -3 -56 -27 -56 -99 0 -65 0 -66 45 -104 40 -34 44 -42 42 -76 -5 -75
80 -264 120 -264 5 0 -6 18 -25 40 -42 49 -105 223 -79 219 23 -4 42 4 64 26
l25 24 33 -70 c19 -39 40 -75 47 -81 18 -14 16 -2 -3 27 -15 23 -14 29 17 112
60 164 91 211 163 244 59 27 80 24 93 -11 25 -66 112 -63 182 6 39 39 48 44
74 38 77 -17 145 -63 173 -116 25 -48 44 -171 50 -327 8 -185 6 -189 -112
-202 -43 -4 -107 -8 -141 -8 -61 -1 -63 0 -63 24 0 15 -7 39 -15 55 -18 35
-21 33 125 57 60 10 110 22 110 27 0 5 -13 6 -30 3 -26 -6 -30 -4 -30 16 0 42
-34 267 -40 267 -4 0 2 -64 12 -142 13 -91 16 -143 9 -147 -5 -4 -58 -15 -117
-25 -88 -16 -114 -17 -150 -8 -60 16 -106 15 -130 -3 -10 -8 -22 -15 -25 -15
-10 0 -31 234 -28 308 2 39 1 72 -2 72 -13 0 -19 -127 -10 -199 9 -73 9 -75
-19 -115 -74 -104 -76 -105 -239 -103 l-135 2 -38 145 c-21 80 -42 148 -46
151 -13 11 -480 20 -487 9 -6 -10 54 -237 75 -287 l10 -23 -195 0 c-133 0
-195 -3 -195 -11 0 -7 60 -10 195 -7 l196 3 10 -38 c6 -24 18 -41 32 -46 12
-5 123 -18 247 -30 l225 -21 119 20 c157 27 181 33 181 51 0 11 -32 17 -150
27 -157 13 -175 16 -175 29 0 5 83 9 185 10 l185 1 -6 -22 c-3 -14 2 -28 15
-40 18 -16 30 -18 78 -11 32 4 159 8 283 8 192 2 230 5 256 19 17 10 34 23 37
31 4 11 29 13 120 9 77 -3 117 0 121 7 5 8 -20 11 -83 11 -52 0 -91 4 -91 10
0 5 11 53 25 107 25 97 31 157 19 188 -9 22 -57 45 -94 45 -18 0 -30 5 -30 13
0 7 -7 37 -16 66 -23 78 -80 131 -172 160 -87 28 -112 54 -112 116 0 34 4 44
20 48 11 3 23 13 26 24 3 10 14 39 25 65 22 54 24 104 6 134 -43 72 -62 94
-91 108 -32 15 -110 19 -165 9z m-291 -524 c0 -7 -23 -10 -65 -7 -36 1 -65 0
-65 -3 0 -12 75 -18 114 -9 l38 8 -4 -53 c-6 -76 -28 -105 -78 -105 -34 0 -43
5 -59 31 -10 17 -17 39 -14 49 3 10 0 21 -6 24 -15 9 -14 49 1 64 15 15 138
16 138 1z m-160 -39 c0 -5 -15 -10 -32 -11 l-33 -1 33 -8 c32 -7 61 -26 51
-33 -2 -2 -26 -2 -52 1 -39 3 -46 6 -36 18 6 8 8 14 4 14 -4 0 -2 7 5 15 14
17 60 21 60 5z m4 -66 c28 -11 17 -26 -14 -19 -16 3 -37 2 -47 -4 -15 -8 -10
-10 25 -11 54 0 97 -31 113 -79 11 -31 10 -36 -11 -53 -30 -24 -47 -23 -54 6
-3 13 -23 38 -45 55 -37 29 -59 80 -45 102 6 10 54 12 78 3z m995 -135 c60
-21 63 -54 23 -214 -24 -92 -31 -110 -49 -113 -19 -3 -20 3 -26 150 -3 84 -8
161 -12 171 -9 20 15 23 64 6z m-1185 -40 c3 -4 116 -414 116 -422 0 -6 -464
43 -471 50 -14 14 -117 382 -108 385 13 4 459 -8 463 -13z m506 -230 c0 -46
-15 -59 -68 -59 l-44 0 35 39 c19 22 41 49 47 61 16 29 30 10 30 -41z m150
-10 c25 -6 57 -11 72 -11 32 1 56 -24 64 -65 l6 -30 -89 -2 c-48 -1 -105 -6
-127 -12 -73 -20 -44 8 39 36 12 5 15 9 8 12 -7 3 -38 -9 -70 -26 -31 -17 -59
-28 -62 -25 -8 7 34 39 84 63 22 11 33 20 25 20 -17 1 -76 -32 -106 -61 -21
-19 -21 -19 -27 1 -7 28 23 64 75 90 49 24 48 24 108 10z m-362 -115 c61 -4
112 -10 112 -14 0 -7 -144 -36 -231 -47 l-46 -5 -11 42 -10 42 36 -6 c20 -3
88 -8 150 -12z"/>
<path d="M1270 840 l-25 -8 27 -1 c15 -1 30 4 33 9 7 11 0 11 -35 0z"/>
<path d="M1632 441 c-22 -16 -43 -35 -47 -41 -5 -9 50 27 104 67 2 2 0 3 -6 3
-5 0 -28 -13 -51 -29z"/>
<path d="M1287 330 c-20 -4 -41 -10 -45 -14 -7 -7 9 -5 108 13 41 8 42 9 10 9
-19 0 -52 -4 -73 -8z"/>
<path d="M1816 1415 c-23 -17 -88 -20 -117 -5 -11 7 -19 7 -19 1 0 -19 67 -33
107 -21 42 11 87 40 62 40 -8 0 -23 -7 -33 -15z"/>
<path d="M1698 1259 c-25 -43 -23 -69 5 -68 16 1 18 2 5 6 -22 6 -23 17 -2 48
9 13 14 29 12 34 -1 6 -11 -3 -20 -20z"/>
<path d="M1753 1276 c5 -15 37 -20 49 -8 6 6 -1 11 -22 14 -19 3 -29 1 -27 -6z"/>
<path d="M1367 1161 c-24 -40 -22 -56 13 -91 20 -20 30 -26 30 -16 0 9 -9 20
-20 26 -24 13 -27 56 -4 88 8 12 11 22 7 22 -5 0 -16 -13 -26 -29z"/>
<path d="M1750 1160 c-8 -5 -23 -7 -34 -4 -12 4 -16 2 -12 -5 4 -6 15 -11 24
-11 20 0 49 17 41 24 -2 3 -11 1 -19 -4z"/>
</g>
</svg>
